:SAMPLES-PER-SECOND 30
:FULLY-SPECIFIED
:DEGREES
311
root  34.84011673 36.52685271 -14.76052202 8.362358093 -4.028667927 3.56870079
lowerback  -7.913020611 -0.634630084 -0.3157850504
upperback  -3.358150005 -0.4180780053 -3.288399935
thorax  0.9424589872 -0.07634429634 -3.251790047
lowerneck  -13.38689995 1.64594996 1.779420018
upperneck  15.25349998 1.294729948 5.266290188
head  6.867793083 1.325330019 1.551749825
lclavicle  0 -4.497500157e-015 -2.743230041e-014
lhumerus  -47.1106987 28.08200073 65.81279755
lradius  0.004719055258 -6.507048965e-006 31.13012314
lwrist  4.824992743e-007 -3.790274832e-007 -26.36200142
lhand  -4.408240579e-031 -36.77159882 -10.69909954
lfingers  90 7.125020027 -90
lthumb  94.76093921 -25.53903779 100.9338349
rclavicle  0 -4.497500157e-015 -2.743230041e-014
rhumerus  -58.40309906 -17.55109787 -51.11740112
rradius  -5.16745672e-007 2.214343908e-008 91.71980286
rwrist  -7.499573258e-005 0.03438235447 -176.9199982
rhand  -1.772936348e-031 5.227429867 -6.015799999
rfingers  -90 -7.125020027 -90
rthumb  -84.08695906 -9.886571401 -58.90122156
rfemur  -11.69311237 16.16637802 13.09516621
rtibia  -1.066135764 -0.6396552324 20.5421772
rfoot  0.2592419386 -21.2468071 -36.86347961
rtoes  3.933195382 19.62498224 -101.5693228
lfemur  -7.247750759 -17.31648254 -20.61671638
ltibia  3.03846097 -0.6993387938 13.87772846
lfoot  0.8026639819 -23.70750237 37.23479843
ltoes  -8.551489724 -18.14765968 -115.7702964
312
root  34.84041409 36.52536587 -14.75824521 8.334321976 -3.99266386 3.558885336
lowerback  -7.903420448 -0.6214090586 -0.3223390877
upperback  -3.400880098 -0.3958910108 -3.308520079
thorax  0.8941029906 -0.06365399808 -3.266849995
lowerneck  -13.38049984 1.626860023 1.803660035
upperneck  15.26760006 1.263939977 5.276979923
head  6.866810799 1.314260006 1.548539996
lclavicle  0 -4.497500157e-015 -2.743230041e-014
lhumerus  -47.13159943 28.00869942 65.81069946
lradius  0.004719055258 -6.507048965e-006 31.13427353
lwrist  4.824992743e-007 -3.790274832e-007 -26.38800049
lhand  -4.40528899e-031 -36.72019958 -10.74870014
lfingers  90 7.125020027 -90
lthumb  94.74723931 -25.58948939 100.8834137
rclavicle  0 -4.497500157e-015 -2.743230041e-014
rhumerus  -58.20289993 -17.7989006 -51.79660034
rradius  -5.16745672e-007 2.214343908e-008 90.34909821
rwrist  -7.499573258e-005 0.03438235447 -176.8079987
rhand  -1.77225396e-031 4.980480194 -5.99751997
rfingers  -90 -7.125020027 -90
rthumb  -84.14106238 -9.888946379 -59.1412912
rfemur  -11.62941074 16.14460945 13.11793518
rtibia  -1.052971482 -0.6309294105 20.50253868
rfoot  0.2767933607 -21.24088478 -36.86483383
rtoes  3.93757099 19.62413804 -101.5823511
lfemur  -7.232278824 -17.33501625 -20.60886574
ltibia  3.024880648 -0.7093530893 13.90723991
lfoot  0.7857679725 -23.70663452 37.18007278
ltoes  -8.523213922 -18.1606049 -115.679545
313
root  34.84351091 36.52452184 -14.75683648 8.321698189 -3.976098537 3.557980299
lowerback  -7.913249969 -0.6100069284 -0.3534538448
upperback  -3.419070005 -0.37677899 -3.303719997
thorax  0.8821390271 -0.05311429873 -3.242660046
lowerneck  -13.3913002 1.60611999 1.80223
upperneck  15.28299999 1.234969974 5.280620098
head  6.865047455 1.301470041 1.547600031
lclavicle  0 -4.497500157e-015 -2.743230041e-014
lhumerus  -47.13999939 27.95170021 65.84300232
lradius  0.004719055258 -6.507048965e-006 31.13606262
lwrist  4.824992743e-007 -3.790274832e-007 -26.36129951
lhand  -4.405753553e-031 -36.72829819 -10.70909977
lfingers  90 7.125020027 -90
lthumb  94.74275181 -25.55034973 100.8884889
rclavicle  0 -4.497500157e-015 -2.743230041e-014
rhumerus  -57.98839951 -18.22240067 -52.38330078
rradius  -5.16745672e-007 2.214343908e-008 89.30780029
rwrist  -7.499573258e-005 0.03438235447 -175.8350067
rhand  -1.772430711e-031 5.045619965 -6.099969864
rfingers  -90 -7.125020027 -90
rthumb  -84.17775113 -9.804532075 -59.08669841
rfemur  -11.58533859 16.14719582 13.11340809
rtibia  -1.043882251 -0.6458976269 20.45526886
rfoot  0.2756941915 -21.26036072 -36.91759491
rtoes  3.95887585 19.62001361 -101.6457934
lfemur  -7.210508823 -17.28993416 -20.61820793
ltibia  3.036077499 -0.6917001605 13.90160561
lfoot  0.7954316735 -23.75276375 37.1516571
ltoes  -8.555022688 -18.14603846 -115.7816398
314
root  34.83668951 36.52466301 -14.75185635 8.33632946 -3.911416054 3.563474417
lowerback  -7.868050098 -0.5913490057 -0.2972964048
upperback  -3.437410116 -0.3542979956 -3.342999935
thorax  0.8385639787 -0.04186559841 -3.312880039
lowerneck  -13.37349987 1.586859941 1.888149977
upperneck  15.27320004 1.196619987 5.269199848
head  6.862606049 1.287780046 1.525900006
lclavicle  0 -4.497500157e-015 -2.743230041e-014
lhumerus  -47.11780167 27.82990074 65.85269928
lradius  0.004719055258 -6.507048965e-006 31.13736153
lwrist  4.824992743e-007 -3.790274832e-007 -26.39940071
lhand  -4.404904877e-031 -36.71350098 -10.63700008
lfingers  90 7.125020027 -90
lthumb  94.72076683 -25.48013175 100.8661932
rclavicle  0 -4.497500157e-015 -2.743230041e-014
rhumerus  -57.78239822 -18.65240097 -52.98419952
rradius  -5.16745672e-007 2.214343908e-008 88.09899902
rwrist  -7.499573258e-005 0.03438235447 -174.9129944
rhand  -0 5.396140099 -6.077469826
rfingers  -90 -7.125020027 -90
rthumb  -84.07569737 -9.843041964 -58.74171509
rfemur  -11.56589222 16.08579063 13.12339973
rtibia  -1.041644096 -0.6571260095 20.43414879
rfoot  0.2791896462 -21.27967834 -36.92037201
rtoes  3.912524714 19.62895704 -101.5077838
lfemur  -7.168764591 -17.30152702 -20.63714981
ltibia  3.09359026 -0.6801559925 13.82292271
lfoot  0.7985318899 -23.72919846 37.1241188
ltoes  -8.578931997 -18.13504494 -115.8584325
315
root  34.83633807 36.52451282 -14.7501127 8.339463234 -3.898371935 3.557373762
lowerback  -7.871500015 -0.5964599252 -0.3013683259
upperback  -3.444659948 -0.36105901 -3.330280066
thorax  0.8327519894 -0.04517810047 -3.297930002
lowerneck  -13.38199997 1.58822 1.843719959
upperneck  15.2737999 1.201159954 5.305309772
head  6.859590054 1.290699959 1.545410037
lclavicle  0 -4.497500157e-015 -2.743230041e-014
lhumerus  -47.13000107 27.76539993 65.92209625
lradius  0.004719055258 -6.507048965e-006 31.1504364
lwrist  4.824992743e-007 -3.790274832e-007 -26.28280067
lhand  -4.403787383e-031 -36.69400024 -10.61419964
lfingers  90 7.125020027 -90
lthumb  94.70686399 -25.45830506 100.8432726
rclavicle  0 -4.497500157e-015 -2.743230041e-014
rhumerus  -57.53329849 -19.05480003 -53.55979919
rradius  -5.16745672e-007 2.214343908e-008 86.8184967
rwrist  -7.499573258e-005 0.03438235447 -174.8990021
rhand  -0 5.387740135 -6.090769768
rfingers  -90 -7.125020027 -90
rthumb  -84.08487081 -9.83121389 -58.75112214
rfemur  -11.55545044 16.10214233 13.13268375
rtibia  -1.036906719 -0.6473539472 20.41329193
rfoot  0.2950033844 -21.25125313 -36.92735672
rtoes  3.906546714 19.63010248 -101.4899888
lfemur  -7.213022232 -17.32752609 -20.61179543
ltibia  3.063981295 -0.6773473024 13.88761711
lfoot  0.8000512123 -23.76973915 37.10545731
ltoes  -8.588581857 -18.13059707 -115.8894389
